<svg viewBox="0 0 280 261" width="75%" height="50%"><defs id="SvgjsDefs1001"></defs><g id="main_text" rel="mainfill" name="main_text" feature="main_text" xmlns:name="mainText_mainfill" groupname="main_text" fill="#539bc5" transform="translate(-1.611164011113538, 193.57363110665665) scale(2.685273778668669)"><path d="M6.48 17.88 c0.94 0 2.42 -0.38 2.42 -1.6 c0 -2.64 -7.86 -0.94 -7.86 -5.96 c0 -2.8 2.6 -4.12 5.08 -4.12 c2.8 0 5.32 1.24 5.42 4.34 l-2.9 0 c-0.16 -1.42 -0.98 -1.88 -2.48 -1.88 c-0.84 0 -2.02 0.4 -2.02 1.42 c0 2.42 7.86 0.68 7.86 5.86 c0 3.2 -2.86 4.38 -5.64 4.38 c-3 0 -5.74 -1.48 -5.76 -4.8 l3.04 0 c0.08 1.62 1.36 2.36 2.84 2.36 z  M16.8 15.6 c0 1.16 0.9 2.2 2.1 2.2 s2.1 -1.04 2.1 -2.2 s-0.9 -2.2 -2.1 -2.2 s-2.1 1.04 -2.1 2.2 z M16.8 25 l-3 0 l0 -13.82 l3 0 l0 1.08 c0.78 -0.96 1.88 -1.28 3.02 -1.28 c2.5 0 4.38 2.18 4.38 4.62 s-1.88 4.6 -4.38 4.6 c-1.14 0 -2.42 -0.36 -3.02 -1.26 l0 6.06 z M33 15.6 c0 -1.16 -0.9 -2.2 -2.1 -2.2 s-2.1 1.04 -2.1 2.2 s0.9 2.2 2.1 2.2 s2.1 -1.04 2.1 -2.2 z M36 11.2 l0 8.8 l-3 0 l0 -1.06 c-0.6 0.9 -1.9 1.26 -3.02 1.26 c-2.5 0 -4.38 -2.16 -4.38 -4.6 s1.88 -4.62 4.38 -4.62 c1.12 0 2.24 0.32 3.02 1.28 l0 -1.06 l3 0 z M43.38 13.4 c-1.12 0 -1.98 1.14 -1.98 2.2 l0 4.4 l-3 0 l0 -8.82 l3 0 l0 1.08 c0.46 -0.66 1.22 -1.28 2.32 -1.28 c0.26 0 0.66 0.08 0.9 0.2 l0 2.72 l-0.04 0 c-0.3 -0.36 -0.74 -0.5 -1.2 -0.5 z M49.02 16.1 l0 3.9 l-3 0 l0 -15 l3 0 l0 9.68 l2.82 -3.5 l3.72 0 l-3.8 4.2 l4.2 4.62 l-3.84 0 z M63.46 15.6 c0 -1.16 -0.9 -2.2 -2.1 -2.2 s-2.1 1.04 -2.1 2.2 s0.9 2.2 2.1 2.2 s2.1 -1.04 2.1 -2.2 z M66.46 5 l0 15 l-3 0 l0 -1.06 c-0.6 0.9 -1.9 1.26 -3.02 1.26 c-2.5 0 -4.38 -2.16 -4.38 -4.6 s1.88 -4.62 4.38 -4.62 c1.12 0 2.24 0.32 3.02 1.28 l0 -7.26 l3 0 z M73.39999999999999 17.92 c1.6 0 2.04 -1.18 2.04 -2.3 c0 -1.1 -0.48 -2.28 -2.04 -2.28 c-1.58 0 -2.06 1.18 -2.06 2.28 c0 1.12 0.44 2.3 2.06 2.3 z M73.39999999999999 11 c2.74 0 5.02 1.84 5.02 4.6 c0 2.82 -2.22 4.58 -5.02 4.58 c-2.82 0 -5.04 -1.76 -5.04 -4.58 c0 -2.76 2.28 -4.6 5.04 -4.6 z M95.18 11.18 l-3.1 8.82 l-3.42 0 l-1.72 -5.5 l-1.7 5.5 l-3.44 0 l-3.04 -8.82 l3.28 0 l1.8 5.76 l1.94 -5.76 l2.32 0 l1.96 5.76 l1.82 -5.76 l3.3 0 z M105.04 15 l0 5 l-3 0 l0 -5 c0 -1.04 -0.4 -1.6 -1.34 -1.6 s-1.68 1 -1.68 2.2 l0 4.4 l-3 0 l0 -8.82 l3 0 l0 1.08 c0.6 -0.76 1.54 -1.28 2.7 -1.28 c2.36 0 3.32 1.62 3.32 4.02 z"></path></g><g id="SvgjsG1010" rel="mainfill" name="symbol" feature="symbol" xmlns:name="symbol_mainfill" fill="#539bc5" transform="translate(25.853396797719384, -12.682976426443549) scale(2.6866240421917986)"><g><path d="M51.22,27.44l12.178-17.136L34.716,26.938h0.03c-3.878,2.091-6.915,5.712-8.111,10.313   c-1.864,7.171,1.311,14.464,7.32,18.14l-0.129-0.004L21.643,72.529l28.684-16.633l-0.135-0.004   c3.936-2.08,7.025-5.729,8.236-10.377C60.282,38.386,57.161,31.139,51.22,27.44z M50.517,43.459   c-1.147,4.412-5.649,7.061-10.063,5.912c-4.411-1.146-7.059-5.652-5.912-10.063c1.147-4.412,5.654-7.058,10.064-5.912   C49.018,34.542,51.663,39.048,50.517,43.459z"></path></g></g></svg>